<svg xmlns="http://www.w3.org/2000/svg" viewBox="0 0 320 120" fill="none">
  <rect width="320" height="120" rx="8" fill="#fff"/>
  <rect x="8" y="8" width="304" height="104" rx="6" fill="#FAFAFA" stroke="#E5E5E5"/>
  <text x="16" y="24" fill="#666" font-family="system-ui,sans-serif" font-size="11" font-weight="700">V1  V4</text>
  <path d="M20 72h18l5-14 5 28 5-20 5 10 5-26 5 34 5-16 5 22 5-10 5 6 5-24 5 32 5-14 5 18 5-8 5 4 5-20 5 28 5-12 5 14 5-6 5 2 5-18 5 24 5-10 5 10 5-4 5 0 5-16 5 20 5-8 5 6 5-2 5 0 5-14 5 18 5-8 5 4 5-2 5 0 5-12 5 16 5-6 5 2 5 0 5-10 5 12 5-4 5 0" stroke="#E53935" stroke-width="2.2" stroke-linecap="round" stroke-linejoin="round"/>
  <text x="16" y="108" fill="#E53935" font-family="system-ui,sans-serif" font-size="10" font-weight="800">ST elevation · anterior leads</text>
</svg>
