<svg xmlns="http://www.w3.org/2000/svg" viewBox="0 0 320 120" fill="none">
  <rect width="320" height="120" rx="8" fill="#fff"/>
  <rect x="8" y="8" width="304" height="104" rx="6" fill="#FAFAFA" stroke="#E5E5E5"/>
  <text x="16" y="24" fill="#666" font-family="system-ui,sans-serif" font-size="11" font-weight="700">II · III · aVF</text>
  <path d="M20 70h24l6-18 6 36 6-24 6 12 6-30 6 42 6-18 6 24 6-12 6 8 6-28 6 38 6-16 6 20 6-10 6 6 6-22 6 32 6-14 6 18 6-8 6 4 6-20 6 28 6-12 6 14 6-6 6 2 6-18 6 24 6-10 6 10 6-4 6 0 6-16 6 20 6-8 6 6 6-2 6 0" stroke="#E53935" stroke-width="2.2" stroke-linecap="round" stroke-linejoin="round"/>
  <text x="16" y="108" fill="#E53935" font-family="system-ui,sans-serif" font-size="10" font-weight="800">ST elevation · inferior leads</text>
</svg>
