<svg xmlns="http://www.w3.org/2000/svg" viewBox="0 0 320 120" fill="none">
  <rect width="320" height="120" rx="8" fill="#fff"/>
  <rect x="8" y="8" width="304" height="104" rx="6" fill="#FAFAFA" stroke="#E5E5E5"/>
  <text x="16" y="24" fill="#666" font-family="system-ui,sans-serif" font-size="11" font-weight="700">Diffuse · PR depression</text>
  <path d="M20 68h16l4-10 4 20 4-8 4 4 4-12 4 16 4-6 4 10 4-4 4 2 4-10 4 14 4-6 4 8 4-2 4 0 4-8 4 12 4-4 4 2 4-8 4 10 4-2 4 0 4-6 4 8 4-2 4 0 4-4 4 6 4-2 4 0 4-2 4 4 4 0 4-2 4 2 4 0 4-2 4 2 4 0 4-2 4 2 4 0 4-2 4 2 4 0" stroke="#1CB0F6" stroke-width="2" stroke-linecap="round" stroke-linejoin="round"/>
  <path d="M20 58h280" stroke="#999" stroke-width="1" stroke-dasharray="4 3"/>
  <text x="16" y="108" fill="#1CB0F6" font-family="system-ui,sans-serif" font-size="10" font-weight="800">Diffuse ST elevation</text>
</svg>
